<svg aria-hidden="true" style="position: absolute; width: 0; height: 0; overflow: hidden;" version="1.1" xmlns="http://www.w3.org/2000/svg" xmlns:xlink="http://www.w3.org/1999/xlink">
<defs>
<symbol id="viber" viewBox="0 0 32 32">
<title>viber</title>
<path fill="#6f3faa" style="fill: var(--color1, #6f3faa)" d="M16 32c8.837 0 16-7.163 16-16s-7.163-16-16-16c-8.837 0-16 7.163-16 16s7.163 16 16 16z"></path>
<path fill="#fff" style="fill: var(--color2, #fff)" d="M24.464 11.245l-0.005-0.021c-0.428-1.728-2.355-3.583-4.125-3.969l-0.020-0.004c-2.863-0.546-5.766-0.546-8.628 0l-0.021 0.004c-1.769 0.386-3.697 2.24-4.125 3.969l-0.005 0.021c-0.529 2.414-0.529 4.861 0 7.275l0.005 0.021c0.41 1.654 2.194 3.424 3.898 3.91v1.929c0 0.698 0.851 1.041 1.335 0.537l1.955-2.032c0.424 0.024 0.848 0.037 1.272 0.037 1.441 0 2.883-0.136 4.314-0.409l0.020-0.004c1.77-0.386 3.697-2.241 4.125-3.969l0.005-0.021c0.529-2.414 0.529-4.861 0-7.275zM22.917 18.17c-0.285 1.128-1.749 2.529-2.911 2.788-1.522 0.29-3.057 0.413-4.589 0.371-0.030-0.001-0.060 0.011-0.081 0.033-0.218 0.223-1.427 1.465-1.427 1.465l-1.518 1.558c-0.111 0.116-0.306 0.037-0.306-0.123v-3.196c0-0.053-0.038-0.098-0.090-0.108-0-0-0.001-0-0.001-0-1.163-0.259-2.626-1.661-2.912-2.788-0.476-2.182-0.476-4.393 0-6.575 0.286-1.128 1.749-2.529 2.912-2.788 2.659-0.506 5.354-0.506 8.012 0 1.163 0.259 2.626 1.661 2.912 2.788 0.476 2.182 0.476 4.393-0 6.575z"></path>
<path fill="#fff" style="fill: var(--color2, #fff)" d="M18.529 19.645c-0.179-0.054-0.349-0.091-0.507-0.156-1.639-0.68-3.148-1.558-4.343-2.903-0.68-0.765-1.212-1.628-1.661-2.542-0.213-0.433-0.393-0.884-0.576-1.331-0.167-0.408 0.079-0.829 0.338-1.137 0.243-0.289 0.556-0.509 0.895-0.672 0.264-0.127 0.525-0.054 0.718 0.17 0.417 0.485 0.801 0.994 1.111 1.555 0.191 0.345 0.139 0.768-0.207 1.003-0.084 0.057-0.161 0.124-0.239 0.189-0.069 0.057-0.133 0.114-0.18 0.19-0.086 0.14-0.090 0.305-0.035 0.458 0.427 1.172 1.146 2.084 2.326 2.576 0.189 0.079 0.378 0.17 0.596 0.145 0.364-0.043 0.482-0.442 0.738-0.651 0.25-0.204 0.569-0.207 0.837-0.037s0.53 0.353 0.789 0.538c0.254 0.181 0.508 0.358 0.742 0.565 0.226 0.199 0.303 0.459 0.176 0.729-0.233 0.494-0.571 0.905-1.059 1.167-0.138 0.074-0.302 0.098-0.458 0.146 0.155-0.048-0.179-0.054 0 0z"></path>
<path fill="#fff" style="fill: var(--color2, #fff)" d="M16.004 10.339c2.144 0.060 3.906 1.483 4.283 3.603 0.064 0.361 0.087 0.731 0.116 1.097 0.012 0.154-0.075 0.301-0.242 0.303-0.172 0.002-0.249-0.142-0.26-0.296-0.022-0.305-0.037-0.612-0.079-0.914-0.222-1.597-1.496-2.919-3.086-3.203-0.239-0.043-0.484-0.054-0.727-0.079-0.153-0.016-0.354-0.025-0.388-0.216-0.028-0.16 0.106-0.287 0.258-0.295 0.041-0.002 0.083-0.001 0.124-0-0.041-0 2.144 0.060 0 0z"></path>
<path fill="#fff" style="fill: var(--color2, #fff)" d="M19.263 14.564c-0.004 0.027-0.005 0.090-0.021 0.149-0.057 0.215-0.383 0.242-0.458 0.025-0.022-0.064-0.026-0.138-0.026-0.207-0.001-0.454-0.1-0.908-0.329-1.303-0.235-0.406-0.595-0.748-1.017-0.954-0.255-0.125-0.531-0.203-0.811-0.249-0.122-0.020-0.246-0.032-0.369-0.050-0.149-0.021-0.228-0.115-0.221-0.262 0.007-0.137 0.107-0.236 0.257-0.228 0.492 0.028 0.967 0.134 1.405 0.366 0.89 0.471 1.398 1.215 1.546 2.208 0.007 0.045 0.017 0.090 0.021 0.135 0.008 0.111 0.014 0.223 0.022 0.37-0.009-0.147-0.004 0.027 0 0z"></path>
<path fill="#fff" style="fill: var(--color2, #fff)" d="M17.93 14.512c-0.179 0.003-0.275-0.096-0.294-0.26-0.013-0.115-0.023-0.231-0.050-0.342-0.054-0.22-0.171-0.423-0.356-0.558-0.087-0.064-0.186-0.11-0.29-0.14-0.132-0.038-0.268-0.028-0.4-0.060-0.142-0.035-0.221-0.15-0.199-0.284 0.020-0.122 0.139-0.217 0.272-0.207 0.831 0.060 1.426 0.49 1.51 1.468 0.006 0.069 0.013 0.142-0.002 0.208-0.026 0.113-0.11 0.17-0.192 0.175 0.082-0.006-0.179 0.003 0 0z"></path>
<path fill="#fff" style="fill: var(--color2, #fff)" d="M18.529 19.645c0.155-0.048-0.179-0.054 0 0v0z"></path>
<path fill="#fff" style="fill: var(--color2, #fff)" d="M16.010 10.339c-0.002 0-0.004-0-0.005-0s0.001 0 0.005 0z"></path>
<path fill="#fff" style="fill: var(--color2, #fff)" d="M16.005 10.339c0.002 0 0.004 0 0.005 0 0.119 0.004 2.055 0.058-0.005-0z"></path>
<path fill="#fff" style="fill: var(--color2, #fff)" d="M19.263 14.564c-0.008-0.147-0.004 0.027 0 0v0z"></path>
<path fill="#fff" style="fill: var(--color2, #fff)" d="M17.93 14.512c0.003-0 0.005-0.002 0.008-0.002-0.008 0-0.019 0-0.031 0.001 0.008 0 0.015 0.001 0.023 0.001z"></path>
<path fill="#fff" style="fill: var(--color2, #fff)" d="M17.93 14.512c-0.008 0-0.015-0.001-0.023-0.001-0.039 0.001-0.079 0.003 0.023 0.001z"></path>
<path fill="#fff" style="fill: var(--color2, #fff)" d="M17.938 14.51c-0.003 0-0.006 0.002-0.008 0.002 0.021-0.001 0.019-0.002 0.008-0.002z"></path>
</symbol>
<symbol id="whatsapp" viewBox="0 0 32 32">
<title>whatsapp</title>
<path fill="#75b73b" style="fill: var(--color3, #75b73b)" d="M16 32c8.837 0 16-7.163 16-16s-7.163-16-16-16c-8.837 0-16 7.163-16 16s7.163 16 16 16z"></path>
<path fill="#fff" style="fill: var(--color2, #fff)" d="M15.552 6.778c-4.877 0.232-8.725 4.293-8.711 9.176 0.005 1.487 0.364 2.891 0.997 4.131l-0.972 4.72c-0.053 0.255 0.178 0.479 0.431 0.419l4.625-1.096c1.188 0.592 2.523 0.934 3.935 0.955 4.985 0.076 9.141-3.882 9.296-8.864 0.166-5.341-4.242-9.696-9.601-9.44zM21.071 20.996c-1.354 1.354-3.155 2.1-5.071 2.1-1.121 0-2.195-0.252-3.192-0.748l-0.644-0.321-2.836 0.672 0.597-2.897-0.317-0.621c-0.517-1.013-0.78-2.108-0.78-3.255 0-1.916 0.746-3.716 2.1-5.071 1.342-1.342 3.172-2.1 5.071-2.1 1.915 0 3.716 0.746 5.070 2.1s2.1 3.155 2.1 5.070c0 1.898-0.758 3.729-2.1 5.071z"></path>
<path fill="#fff" style="fill: var(--color2, #fff)" d="M20.445 17.911l-1.774-0.509c-0.233-0.067-0.484-0.001-0.654 0.172l-0.434 0.442c-0.183 0.186-0.46 0.246-0.703 0.148-0.839-0.34-2.604-1.909-3.055-2.694-0.13-0.226-0.109-0.509 0.051-0.716l0.379-0.49c0.148-0.192 0.18-0.45 0.082-0.672l-0.746-1.688c-0.179-0.404-0.695-0.522-1.033-0.236-0.495 0.419-1.083 1.055-1.154 1.76-0.126 1.243 0.407 2.81 2.423 4.691 2.329 2.174 4.193 2.46 5.408 2.166 0.689-0.167 1.239-0.835 1.586-1.383 0.237-0.374 0.050-0.869-0.375-0.991z"></path>
</symbol>
<symbol id="telegram" viewBox="0 0 32 32">
<title>telegram</title>
<path fill="#40b3e0" style="fill: var(--color4, #40b3e0)" d="M16 0c-8.837 0-16 7.163-16 16s7.163 16 16 16c8.837 0 16-7.163 16-16s-7.163-16-16-16z"></path>
<path fill="#fff" style="fill: var(--color2, #fff)" d="M23.785 9.204l-2.858 14.408c0 0-0.4 0.999-1.499 0.52l-6.595-5.056-2.398-1.159-4.037-1.359c0 0-0.62-0.22-0.679-0.699s0.699-0.739 0.699-0.739l16.047-6.295c0 0 1.319-0.579 1.319 0.38z"></path>
<path fill="#d2e5f1" style="fill: var(--color5, #d2e5f1)" d="M12.327 23.451c0 0-0.193-0.018-0.432-0.777s-1.459-4.756-1.459-4.756l9.692-6.155c0 0 0.56-0.34 0.54 0 0 0 0.1 0.060-0.2 0.34s-7.614 6.854-7.614 6.854z"></path>
<path fill="#b5cfe4" style="fill: var(--color6, #b5cfe4)" d="M15.363 21.014l-2.609 2.378c0 0-0.204 0.155-0.427 0.058l0.5-4.418z"></path>
</symbol>
</defs>
</svg>
